name ./resultDataOpenSim/trcMotMarkerGrf/sub06/grf-13-06.mot
datacolumns 19
datarows 30
range 0.53200000 0.64800000
endheader

                time	     ground_force_vx	     ground_force_vy	     ground_force_vz	     ground_force_px	     ground_force_py	     ground_force_pz	   l_ground_force_vx	   l_ground_force_vy	   l_ground_force_vz	   l_ground_force_px	   l_ground_force_py	   l_ground_force_pz	     ground_torque_x	     ground_torque_y	     ground_torque_z	   l_ground_torque_x	   l_ground_torque_y	   l_ground_torque_z	
          0.53200000	        152.62000459	        747.27770466	        -39.70491358	         -0.76617808	          0.00000000	          0.07668767	          0.00000000	          0.00000000	          0.00000000	          0.00000000	          0.00000000	          0.00000000	          0.00000000	          2.18594097	          0.00000000	          0.00000000	          0.00000000	          0.00000000	
          0.53600000	        158.81162118	        751.52603584	        -39.39010141	         -0.76570529	          0.00000000	          0.07654445	          0.00000000	          0.00000000	          0.00000000	          0.00000000	          0.00000000	          0.00000000	          0.00000000	          2.21324194	          0.00000000	          0.00000000	          0.00000000	          0.00000000	
          0.54000000	        165.16105169	        754.14545595	        -39.14854262	         -0.76528549	          0.00000000	          0.07640276	          0.00000000	          0.00000000	          0.00000000	          0.00000000	          0.00000000	          0.00000000	          0.00000000	          2.21145210	          0.00000000	          0.00000000	          0.00000000	          0.00000000	
          0.54400000	        171.65889490	        755.17823457	        -39.00127896	         -0.76496749	          0.00000000	          0.07624156	          0.00000000	          0.00000000	          0.00000000	          0.00000000	          0.00000000	          0.00000000	          0.00000000	          2.17910562	          0.00000000	          0.00000000	          0.00000000	          0.00000000	
          0.54800000	        178.21749103	        754.45704596	        -38.91446056	         -0.76469939	          0.00000000	          0.07607306	          0.00000000	          0.00000000	          0.00000000	          0.00000000	          0.00000000	          0.00000000	          0.00000000	          2.11890716	          0.00000000	          0.00000000	          0.00000000	          0.00000000	
          0.55200000	        184.70787441	        751.75831232	        -38.81937047	         -0.76439723	          0.00000000	          0.07591797	          0.00000000	          0.00000000	          0.00000000	          0.00000000	          0.00000000	          0.00000000	          0.00000000	          2.03691284	          0.00000000	          0.00000000	          0.00000000	          0.00000000	
          0.55600000	        191.00486990	        746.99978506	        -38.62914579	         -0.76404030	          0.00000000	          0.07577570	          0.00000000	          0.00000000	          0.00000000	          0.00000000	          0.00000000	          0.00000000	          0.00000000	          1.94114836	          0.00000000	          0.00000000	          0.00000000	          0.00000000	
          0.56000000	        197.00324809	        740.25994110	        -38.24858968	         -0.76368254	          0.00000000	          0.07562371	          0.00000000	          0.00000000	          0.00000000	          0.00000000	          0.00000000	          0.00000000	          0.00000000	          1.83965734	          0.00000000	          0.00000000	          0.00000000	          0.00000000	
          0.56400000	        202.61283006	        731.60501562	        -37.58717431	         -0.76338399	          0.00000000	          0.07544469	          0.00000000	          0.00000000	          0.00000000	          0.00000000	          0.00000000	          0.00000000	          0.00000000	          1.73830569	          0.00000000	          0.00000000	          0.00000000	          0.00000000	
          0.56800000	        207.76242874	        720.91597590	        -36.57265490	         -0.76314607	          0.00000000	          0.07525301	          0.00000000	          0.00000000	          0.00000000	          0.00000000	          0.00000000	          0.00000000	          0.00000000	          1.63912694	          0.00000000	          0.00000000	          0.00000000	          0.00000000	
          0.57200000	        212.41241831	        707.92298092	        -35.15855417	         -0.76290114	          0.00000000	          0.07509106	          0.00000000	          0.00000000	          0.00000000	          0.00000000	          0.00000000	          0.00000000	          0.00000000	          1.53997847	          0.00000000	          0.00000000	          0.00000000	          0.00000000	
          0.57600000	        216.54658750	        692.45292042	        -33.33823881	         -0.76258116	          0.00000000	          0.07498948	          0.00000000	          0.00000000	          0.00000000	          0.00000000	          0.00000000	          0.00000000	          0.00000000	          1.43557861	          0.00000000	          0.00000000	          0.00000000	          0.00000000	
          0.58000000	        220.15719000	        674.61410214	        -31.15592123	         -0.76222966	          0.00000000	          0.07492042	          0.00000000	          0.00000000	          0.00000000	          0.00000000	          0.00000000	          0.00000000	          0.00000000	          1.31914835	          0.00000000	          0.00000000	          0.00000000	          0.00000000	
          0.58400000	        223.24802874	        654.61182011	        -28.68078138	         -0.76203717	          0.00000000	          0.07480649	          0.00000000	          0.00000000	          0.00000000	          0.00000000	          0.00000000	          0.00000000	          0.00000000	          1.18380432	          0.00000000	          0.00000000	          0.00000000	          0.00000000	
          0.58800000	        225.79278422	        632.30738644	        -25.95693467	         -0.76218111	          0.00000000	          0.07460663	          0.00000000	          0.00000000	          0.00000000	          0.00000000	          0.00000000	          0.00000000	          0.00000000	          1.02373994	          0.00000000	          0.00000000	          0.00000000	          0.00000000	
          0.59200000	        227.61599421	        607.04946452	        -22.97155390	         -0.76261897	          0.00000000	          0.07437090	          0.00000000	          0.00000000	          0.00000000	          0.00000000	          0.00000000	          0.00000000	          0.00000000	          0.83597642	          0.00000000	          0.00000000	          0.00000000	          0.00000000	
          0.59600000	        228.33304131	        578.07216711	        -19.66487059	         -0.76311056	          0.00000000	          0.07418673	          0.00000000	          0.00000000	          0.00000000	          0.00000000	          0.00000000	          0.00000000	          0.00000000	          0.62289841	          0.00000000	          0.00000000	          0.00000000	          0.00000000	
          0.60000000	        227.45804704	        545.07598783	        -15.98006217	         -0.76349306	          0.00000000	          0.07407830	          0.00000000	          0.00000000	          0.00000000	          0.00000000	          0.00000000	          0.00000000	          0.00000000	          0.39446812	          0.00000000	          0.00000000	          0.00000000	          0.00000000	
          0.60400000	        224.54086762	        508.36903454	        -11.91115317	         -0.76392109	          0.00000000	          0.07396562	          0.00000000	          0.00000000	          0.00000000	          0.00000000	          0.00000000	          0.00000000	          0.00000000	          0.16858831	          0.00000000	          0.00000000	          0.00000000	          0.00000000	
          0.60800000	        219.14464410	        468.47555857	         -7.51798748	         -0.76465699	          0.00000000	          0.07374948	          0.00000000	          0.00000000	          0.00000000	          0.00000000	          0.00000000	          0.00000000	          0.00000000	         -0.03095202	          0.00000000	          0.00000000	          0.00000000	          0.00000000	
          0.61200000	        210.74842985	        425.75553916	         -2.93102150	         -0.76563644	          0.00000000	          0.07343446	          0.00000000	          0.00000000	          0.00000000	          0.00000000	          0.00000000	          0.00000000	          0.00000000	         -0.17831927	          0.00000000	          0.00000000	          0.00000000	          0.00000000	
          0.61600000	        198.81901056	        380.54799534	          1.64106129	         -0.76638530	          0.00000000	          0.07312665	          0.00000000	          0.00000000	          0.00000000	          0.00000000	          0.00000000	          0.00000000	          0.00000000	         -0.25034323	          0.00000000	          0.00000000	          0.00000000	          0.00000000	
          0.62000000	        183.07822442	        333.69056563	          5.92329081	         -0.76637023	          0.00000000	          0.07292073	        -25.90751697	        297.55656724	         27.55398345	         -0.11538497	         -0.04926993	         -0.05893004	          0.00000000	         -0.23157991	          0.00000000	          0.00000000	          0.01588951	          0.00000000	
          0.62400000	        163.73652359	        286.77338828	          9.61899921	         -0.76538872	          0.00000000	          0.07279173	        -42.20740251	        449.48787479	         37.57447087	         -0.10833039	         -0.04968409	         -0.05920962	          0.00000000	         -0.11929870	          0.00000000	          0.00000000	         -0.14279208	          0.00000000	
          0.62800000	        141.52271262	        241.74942183	         12.46748537	         -0.76357365	          0.00000000	          0.07259381	        -62.80230116	        591.40628376	         46.06984377	         -0.10229911	         -0.04995093	         -0.05969112	          0.00000000	          0.07268800	          0.00000000	          0.00000000	         -0.23251035	          0.00000000	
          0.63200000	        117.56282295	        200.21026349	         14.28304717	         -0.76093983	          0.00000000	          0.07223349	        -89.99925787	        716.56041823	         51.93456088	         -0.09682177	         -0.05003588	         -0.06022618	          0.00000000	          0.31310825	          0.00000000	          0.00000000	         -0.19808016	          0.00000000	
          0.63600000	         93.22678249	        162.97364982	         14.96960624	         -0.75690777	          0.00000000	          0.07185034	       -122.31763903	        822.43892169	         53.86909753	         -0.09170214	         -0.05000383	         -0.06050934	          0.00000000	          0.55665677	          0.00000000	          0.00000000	          0.00485628	          0.00000000	
          0.64000000	         69.98026362	        130.25546441	         14.52166336	         -0.75054285	          0.00000000	          0.07170962	       -154.88588753	        908.33033502	         50.66418457	         -0.08698989	         -0.04996747	         -0.06030357	          0.00000000	          0.75167727	          0.00000000	          0.00000000	          0.39616665	          0.00000000	
          0.64400000	         49.21081793	        102.04144675	         13.00697679	         -0.74162419	          0.00000000	          0.07191994	       -181.95977582	        973.58225863	         42.27253373	         -0.08282414	         -0.04997845	         -0.05964548	          0.00000000	          0.85031800	          0.00000000	          0.00000000	          0.96063303	          0.00000000	
          0.64800000	         31.98012585	         78.16669702	         10.53858554	         -0.73143779	          0.00000000	          0.07241163	       -200.00383209	       1017.70020023	         30.35384267	         -0.07932397	         -0.05000856	         -0.05882488	          0.00000000	          0.81859482	          0.00000000	          0.00000000	          1.64604902	          0.00000000	
